<?xml version="1.0" encoding="UTF-8"?>
<svg version="1.1" xmlns="http://www.w3.org/2000/svg" width="889" height="205">
<path d="M0 0 C4.2005293 1.80576246 7.54391487 1.89897655 12.06002808 1.89079285 C12.90946487 1.9009845 13.75890167 1.91117615 14.63407898 1.92167664 C17.42603207 1.95173526 20.21764166 1.96106164 23.00973511 1.97013855 C24.95173273 1.98699052 26.89371947 2.00514147 28.83569336 2.02453613 C33.93523765 2.07198588 39.03473785 2.1018278 44.13442993 2.12797546 C49.34295356 2.15780629 54.55132534 2.20432799 59.75973511 2.24943542 C69.97061054 2.33541155 80.18147028 2.40123878 90.39254761 2.4584198 C90.39254761 10.7084198 90.39254761 18.9584198 90.39254761 27.4584198 C80.82254761 27.4584198 71.25254761 27.4584198 61.39254761 27.4584198 C61.39254761 59.1384198 61.39254761 90.8184198 61.39254761 123.4584198 C52.15254761 123.4584198 42.91254761 123.4584198 33.39254761 123.4584198 C33.06254761 111.5784198 32.73254761 99.6984198 32.39254761 87.4584198 C30.41254761 91.4184198 28.43254761 95.3784198 26.39254761 99.4584198 C24.58240176 101.92136249 22.97833777 103.98754917 20.89254761 106.1459198 C20.38554321 106.68208923 19.87853882 107.21825867 19.35617065 107.77067566 C5.53164866 121.80927102 -12.53568202 128.65771561 -32.04495239 128.9584198 C-45.5063387 128.90692161 -55.32219363 125.2836948 -65.60745239 116.4584198 C-67.24999041 115.4192631 -68.9032354 114.39299041 -70.60745239 113.4584198 C-70.60745239 116.7584198 -70.60745239 120.0584198 -70.60745239 123.4584198 C-79.84745239 123.4584198 -89.08745239 123.4584198 -98.60745239 123.4584198 C-99.94669868 120.77992722 -99.93853621 118.47171142 -100.16409302 115.47990417 C-100.30929382 113.59785278 -100.30929382 113.59785278 -100.45742798 111.67778015 C-100.50731369 111.00555923 -100.5571994 110.33333832 -100.6085968 109.64074707 C-100.76464998 107.53941003 -100.92589181 105.4385291 -101.08853149 103.33769226 C-101.4913653 98.12010115 -101.88514257 92.90183341 -102.27926636 87.68357849 C-102.61260701 83.27467665 -102.94932835 78.86605864 -103.29060364 74.45776367 C-103.44963449 72.38510434 -103.60363516 70.31210947 -103.75747681 68.23905945 C-103.90267761 66.35700806 -103.90267761 66.35700806 -104.05081177 64.43693542 C-104.13439941 63.32822083 -104.21798706 62.21950623 -104.30410767 61.07719421 C-104.45383761 58.48121129 -104.45383761 58.48121129 -105.60745239 56.4584198 C-105.83438278 57.12081665 -106.06131317 57.7832135 -106.29512024 58.46568298 C-108.45289894 64.76181281 -110.61451698 71.05661027 -112.78026867 77.35000229 C-113.89310004 80.5841692 -115.00453142 83.81880203 -116.11257935 87.05461121 C-117.39166232 90.78967778 -118.67716625 94.52251948 -119.96292114 98.2552948 C-120.54761421 99.96697845 -120.54761421 99.96697845 -121.14411926 101.71324158 C-123.69285334 109.09240911 -126.5413977 116.27820818 -129.60745239 123.4584198 C-135.21745239 123.4584198 -140.82745239 123.4584198 -146.60745239 123.4584198 C-147.19760132 121.77361511 -147.78775024 120.08881042 -148.39578247 118.35295105 C-150.35481444 112.76080939 -152.31465803 107.16895272 -154.27504444 101.57728577 C-155.46256044 98.19000576 -156.64975934 94.80261533 -157.83621216 91.41496277 C-158.98310256 88.14031046 -160.13085385 84.86596104 -161.27918053 81.59181213 C-161.92612306 79.7465284 -162.57219397 77.90093916 -163.21824646 76.05534363 C-163.61843491 74.91476501 -164.01862335 73.7741864 -164.43093872 72.5990448 C-164.80449493 71.53363464 -165.17805115 70.46822449 -165.56292725 69.37052917 C-166.46558516 66.85394202 -167.4188563 64.36723804 -168.39920044 61.8802948 C-169.60745239 58.4584198 -169.60745239 58.4584198 -169.60745239 54.4584198 C-170.26745239 54.4584198 -170.92745239 54.4584198 -171.60745239 54.4584198 C-171.43761841 55.04244568 -171.26778442 55.62647156 -171.09280396 56.22819519 C-170.31578784 59.79863894 -170.95559938 63.30068889 -171.35745239 66.8959198 C-172.5507553 78.35373046 -173.46728954 89.8288064 -174.36343384 101.31288147 C-174.54848115 103.68184907 -174.73607697 106.05060513 -174.92385864 108.4193573 C-174.97798416 109.12600021 -175.03210968 109.83264313 -175.08787537 110.56069946 C-175.43403427 114.90861532 -175.98850974 119.12582124 -176.60745239 123.4584198 C-185.84745239 123.4584198 -195.08745239 123.4584198 -204.60745239 123.4584198 C-204.60745239 113.3334198 -204.60745239 113.3334198 -204.22781372 109.12417603 C-204.10160141 107.69204018 -204.10160141 107.69204018 -203.97283936 106.23097229 C-203.83257828 104.70858444 -203.83257828 104.70858444 -203.68948364 103.15544128 C-203.59194794 102.06172714 -203.49441223 100.968013 -203.3939209 99.84115601 C-203.07304618 96.25359095 -202.74653939 92.66656271 -202.41995239 89.07951355 C-202.19540129 86.58134031 -201.97120397 84.08313525 -201.74734497 81.5848999 C-201.21905337 75.69879685 -200.68721509 69.81302284 -200.15362644 63.92739779 C-199.48614158 56.56241599 -198.82422029 49.19693593 -198.16213989 41.83146667 C-196.98168536 28.70671388 -195.79574939 15.58246488 -194.60745239 2.4584198 C-184.37745239 2.4584198 -174.14745239 2.4584198 -163.60745239 2.4584198 C-162.72444458 4.80451355 -161.84143677 7.1506073 -160.93167114 9.5677948 C-155.13211631 24.95828964 -149.31344012 40.33946632 -143.29495239 55.6459198 C-142.83370972 56.81928894 -142.37246704 57.99265808 -141.89724731 59.20158386 C-139.90117047 64.39545933 -139.90117047 64.39545933 -137.60745239 69.4584198 C-137.39971191 68.91401245 -137.19197144 68.3696051 -136.97793579 67.80870056 C-134.77269199 62.03056516 -132.56518081 56.25329942 -130.35647583 50.47648621 C-129.53755999 48.33379515 -128.71918153 46.19089862 -127.90139771 44.04777527 C-122.59147802 30.13369825 -117.17377859 16.27210086 -111.60745239 2.4584198 C-101.70745239 2.4584198 -91.80745239 2.4584198 -81.60745239 2.4584198 C-80.61745239 6.9134198 -80.61745239 6.9134198 -79.60745239 11.4584198 C-79.14854614 10.96470886 -78.68963989 10.47099792 -78.21682739 9.96232605 C-77.60323364 9.32166199 -76.98963989 8.68099792 -76.35745239 8.0209198 C-75.75417114 7.38283386 -75.15088989 6.74474792 -74.52932739 6.08732605 C-72.50697224 4.37325674 -71.19474634 3.86483102 -68.60745239 3.4584198 C-68.60745239 2.7984198 -68.60745239 2.1384198 -68.60745239 1.4584198 C-47.42430655 -8.9078005 -21.21246654 -12.54125234 0 0 Z M-48.60745239 28.4584198 C-48.60745239 29.1184198 -48.60745239 29.7784198 -48.60745239 30.4584198 C-49.94078573 31.12508647 -51.27411906 31.79175313 -52.60745239 32.4584198 C-53.51495239 32.9534198 -54.42245239 33.4484198 -55.35745239 33.9584198 C-59.09787083 35.68476677 -62.59345484 36.55873069 -66.60745239 37.4584198 C-66.60745239 37.7884198 -66.60745239 38.1184198 -66.60745239 38.4584198 C-59.27722566 37.98550195 -51.70359738 36.76753256 -45.81838989 32.0131073 C-44.3002077 30.39239729 -44.3002077 30.39239729 -44.60745239 27.4584198 C-46.68198799 27.3093486 -46.68198799 27.3093486 -48.60745239 28.4584198 Z M27.39254761 27.4584198 C29.04254761 31.4184198 30.69254761 35.3784198 32.39254761 39.4584198 C32.72254761 39.4584198 33.05254761 39.4584198 33.39254761 39.4584198 C33.39254761 35.4984198 33.39254761 31.5384198 33.39254761 27.4584198 C31.41254761 27.4584198 29.43254761 27.4584198 27.39254761 27.4584198 Z M-14.60745239 29.4584198 C-13.55870242 32.08029474 -12.95813926 33.25213341 -10.48245239 34.7084198 C-9.86370239 34.9559198 -9.24495239 35.2034198 -8.60745239 35.4584198 C-7.94745239 34.7984198 -7.28745239 34.1384198 -6.60745239 33.4584198 C-10.27725444 30.54670191 -10.27725444 30.54670191 -14.60745239 29.4584198 Z M-4.60745239 35.4584198 C-4.60745239 35.7884198 -4.60745239 36.1184198 -4.60745239 36.4584198 C-2.62745239 36.4584198 -0.64745239 36.4584198 1.39254761 36.4584198 C1.39254761 36.1284198 1.39254761 35.7984198 1.39254761 35.4584198 C-0.58745239 35.4584198 -2.56745239 35.4584198 -4.60745239 35.4584198 Z M-65.60745239 46.4584198 C-65.60745239 47.4484198 -65.60745239 48.4384198 -65.60745239 49.4584198 C-64.61745239 49.4584198 -63.62745239 49.4584198 -62.60745239 49.4584198 C-63.59745239 48.4684198 -64.58745239 47.4784198 -65.60745239 46.4584198 Z M-46.60745239 46.4584198 C-48.18585811 48.01547174 -48.18585811 48.01547174 -49.73245239 49.9584198 C-50.27128052 50.6081073 -50.81010864 51.2577948 -51.36526489 51.9271698 C-51.77518677 52.4324823 -52.18510864 52.9377948 -52.60745239 53.4584198 C-49.38435999 53.7895187 -49.38435999 53.7895187 -46.91995239 51.0834198 C-44.38710888 48.79135438 -44.38710888 48.79135438 -44.60745239 46.4584198 C-45.26745239 46.4584198 -45.92745239 46.4584198 -46.60745239 46.4584198 Z M-15.60745239 46.4584198 C-15.95115444 49.41350843 -15.95115444 49.41350843 -14.29495239 50.84513855 C-13.73807739 51.27439636 -13.18120239 51.70365417 -12.60745239 52.1459198 C-11.12245239 53.2906073 -11.12245239 53.2906073 -9.60745239 54.4584198 C-9.26375034 51.50333117 -9.26375034 51.50333117 -10.91995239 50.07170105 C-11.47682739 49.64244324 -12.03370239 49.21318542 -12.60745239 48.7709198 C-13.59745239 48.0077948 -14.58745239 47.2446698 -15.60745239 46.4584198 Z M3.39254761 46.4584198 C2.46442261 47.9124823 2.46442261 47.9124823 1.51754761 49.3959198 C-0.60745239 52.4584198 -0.60745239 52.4584198 -2.60745239 53.4584198 C-2.27745239 54.1184198 -1.94745239 54.7784198 -1.60745239 55.4584198 C1.63553912 53.06884711 3.90157103 51.2536329 5.39254761 47.4584198 C4.73254761 47.1284198 4.07254761 46.7984198 3.39254761 46.4584198 Z M-62.60745239 50.4584198 C-62.93745239 51.1184198 -63.26745239 51.7784198 -63.60745239 52.4584198 C-62.61745239 52.1284198 -61.62745239 51.7984198 -60.60745239 51.4584198 C-61.26745239 51.1284198 -61.92745239 50.7984198 -62.60745239 50.4584198 Z M-56.60745239 53.4584198 C-56.93745239 54.1184198 -57.26745239 54.7784198 -57.60745239 55.4584198 C-56.28745239 55.1284198 -54.96745239 54.7984198 -53.60745239 54.4584198 C-54.59745239 54.1284198 -55.58745239 53.7984198 -56.60745239 53.4584198 Z M-7.60745239 53.4584198 C-7.27745239 54.4484198 -6.94745239 55.4384198 -6.60745239 56.4584198 C-5.61745239 56.4584198 -4.62745239 56.4584198 -3.60745239 56.4584198 C-3.93745239 55.4684198 -4.26745239 54.4784198 -4.60745239 53.4584198 C-5.59745239 53.4584198 -6.58745239 53.4584198 -7.60745239 53.4584198 Z " fill="#B5D2E0" transform="translate(296.6074523925781,33.54158020019531)"/>
<path d="M0 0 C0.99 0.99 0.99 0.99 2 2 C1.63836638 5.63649034 0.43136448 8.45049901 -1.28515625 11.64453125 C-1.73310547 12.48564453 -2.18105469 13.32675781 -2.64257812 14.19335938 C-3.11115234 15.05767578 -3.57972656 15.92199219 -4.0625 16.8125 C-4.53494141 17.69615234 -5.00738281 18.57980469 -5.49414062 19.49023438 C-6.65703284 21.66331578 -7.82578375 23.83302284 -9 26 C-11.52343833 24.99062467 -14.04456358 23.98130104 -16.55078125 22.9296875 C-27.98863699 18.56162378 -39.90989488 18.27730003 -51.38671875 22.75 C-60.22113881 26.97573157 -66.43676851 33.74571516 -70.171875 42.859375 C-72.69645689 52.43373272 -71.79329828 62.35944915 -67 71 C-66.649375 71.64453125 -66.29875 72.2890625 -65.9375 72.953125 C-61.62130615 79.84704573 -54.27173816 84.22694735 -46.56640625 86.46484375 C-35.36568575 88.80045822 -23.69930544 88.74273393 -13.375 83.25 C-12.59125 82.8375 -11.8075 82.425 -11 82 C-7.36736197 83.21087934 -7.22659125 83.91431336 -5.5546875 87.21875 C-5.11769531 88.06824219 -4.68070313 88.91773438 -4.23046875 89.79296875 C-3.78316406 90.68628906 -3.33585938 91.57960938 -2.875 92.5 C-1.97792576 94.26111175 -1.07955686 96.02156482 -0.1796875 97.78125 C0.21492676 98.56564453 0.60954102 99.35003906 1.01611328 100.15820312 C1.86497145 101.96181037 1.86497145 101.96181037 3 103 C14.37492433 75.34487125 25.59168056 47.62999814 36.671875 19.85546875 C37.05011414 18.90782654 37.42835327 17.96018433 37.8180542 16.98382568 C39.50928109 12.74506984 41.19703924 8.50505257 42.87304688 4.26025391 C43.15384094 3.55145584 43.43463501 2.84265778 43.72393799 2.11238098 C44.45611755 0.26354433 45.18569378 -1.58632272 45.91503906 -3.4362793 C47 -6 47 -6 48 -7 C49.92667507 -7.08748207 51.85651861 -7.10697334 53.78515625 -7.09765625 C54.95498047 -7.09443359 56.12480469 -7.09121094 57.33007812 -7.08789062 C58.56177734 -7.07951172 59.79347656 -7.07113281 61.0625 -7.0625 C62.91584961 -7.05573242 62.91584961 -7.05573242 64.80664062 -7.04882812 C67.87114117 -7.03699608 70.93554721 -7.02051173 74 -7 C77.92378263 1.28912696 81.52512457 9.62775984 84.8125 18.1875 C85.77018279 20.65182666 86.72932049 23.11551991 87.69140625 25.578125 C87.94848358 26.23642807 88.20556091 26.89473114 88.47042847 27.57298279 C91.98890853 36.55776082 95.62365173 45.49586119 99.25 54.4375 C99.60783569 55.32036682 99.96567139 56.20323364 100.33435059 57.112854 C103.99516478 66.1443841 107.66308831 75.17301771 111.33480835 84.20011902 C112.74341089 87.66386121 114.15086336 91.12807017 115.55822754 94.59231567 C116.54749149 97.02558394 117.5388224 99.45800308 118.53027344 101.89038086 C119.12574146 103.35526924 119.72112413 104.82019232 120.31640625 106.28515625 C120.59051834 106.95592194 120.86463043 107.62668762 121.14704895 108.31777954 C123 112.88625642 123 112.88625642 123 114 C112.77 114 102.54 114 92 114 C90.02 108.8953125 90.02 108.8953125 88 103.6875 C87.58234375 102.61846436 87.1646875 101.54942871 86.734375 100.44799805 C86.40953125 99.60277588 86.0846875 98.75755371 85.75 97.88671875 C85.41484375 97.02264404 85.0796875 96.15856934 84.734375 95.26831055 C84 93 84 93 84 90 C68.82 90 53.64 90 38 90 C37.67 91.65 37.34 93.3 37 95 C36.48998932 96.55934488 35.94601176 98.1079322 35.37109375 99.64453125 C34.94848267 100.78305542 34.94848267 100.78305542 34.51733398 101.94458008 C34.16098877 102.89099365 33.80464355 103.83740723 33.4375 104.8125 C31.7359375 109.3603125 31.7359375 109.3603125 30 114 C19.77 114 9.54 114 -1 114 C-0.34 111.69 0.32 109.38 1 107 C0.28457031 107.39832031 -0.43085937 107.79664063 -1.16796875 108.20703125 C-18.42013175 117.37991481 -38.64290881 119.58472083 -57.48046875 113.9609375 C-75.52422516 107.40341759 -89.0939705 95.9440985 -98 79 C-104.6138342 63.0900544 -105.13493378 46.46856548 -98.55859375 30.5 C-94.82030658 22.45097334 -90.36780132 16.15775232 -84 10 C-83.01 9.03126953 -83.01 9.03126953 -82 8.04296875 C-61.06743749 -11.32809212 -24.43761907 -16.03718752 0 0 Z M60 33 C58.28888148 37.39573909 56.57994101 41.79231609 54.87304688 46.18969727 C54.2916198 47.68667686 53.70958972 49.18342239 53.12695312 50.67993164 C52.29139502 52.82637811 51.45798273 54.97364676 50.625 57.12109375 C50.36251465 57.79401962 50.1000293 58.4669455 49.82958984 59.16026306 C48.54727299 61.99910709 48.54727299 61.99910709 48 65 C56.58 65 65.16 65 74 65 C73.21753906 62.94136719 72.43507813 60.88273437 71.62890625 58.76171875 C70.87086664 56.7660872 70.11303556 54.77037659 69.35522461 52.7746582 C68.82875006 51.38850762 68.30205901 50.00243924 67.77514648 48.61645508 C67.0174955 46.62342596 66.26062547 44.6301018 65.50390625 42.63671875 C65.04830322 41.43748779 64.5927002 40.23825684 64.12329102 39.00268555 C63.37964912 37.01484559 62.67115654 35.01346961 62 33 C61.34 33 60.68 33 60 33 Z " fill="#FDFDFD" transform="translate(629,43)"/>
<path d="M0 0 C10.23 0 20.46 0 31 0 C31.88300781 2.34609375 32.76601562 4.6921875 33.67578125 7.109375 C39.47533609 22.49986984 45.29401227 37.88104652 51.3125 53.1875 C51.77374268 54.36086914 52.23498535 55.53423828 52.71020508 56.74316406 C54.70628192 61.93703953 54.70628192 61.93703953 57 67 C57.20774048 66.45559265 57.41548096 65.9111853 57.6295166 65.35028076 C59.8347604 59.57214536 62.04227159 53.79487962 64.25097656 48.01806641 C65.0698924 45.87537535 65.88827086 43.73247882 66.70605469 41.58935547 C72.01597437 27.67527845 77.43367381 13.81368106 83 0 C92.9 0 102.8 0 113 0 C114.14838461 9.18707688 113.76130333 12.69326223 108.36328125 19.890625 C100.60456835 31.8955103 98.77625388 47.56703166 98.6875 61.5625 C98.68194092 62.28783936 98.67638184 63.01317871 98.6706543 63.76049805 C98.79850876 73.24249082 102.11950711 81.44994464 106 90 C106.43183594 90.96808594 106.86367187 91.93617187 107.30859375 92.93359375 C110.4845415 99.42044453 114.06568462 102.91196664 119.8515625 107.16015625 C123.08552349 109.92960285 123.52690889 111.82102853 124 116 C124 117.65 124 119.3 124 121 C114.76 121 105.52 121 96 121 C94.66075371 118.32150742 94.66891618 116.01329162 94.44335938 113.02148438 C94.29815857 111.13943298 94.29815857 111.13943298 94.15002441 109.21936035 C94.1001387 108.54713943 94.05025299 107.87491852 93.99885559 107.18232727 C93.84280241 105.08099023 93.68156058 102.9801093 93.5189209 100.87927246 C93.11608709 95.66168135 92.72230982 90.44341361 92.32818604 85.22515869 C91.99484538 80.81625685 91.65812404 76.40763884 91.31684875 71.99934387 C91.1578179 69.92668454 91.00381724 67.85368967 90.84997559 65.78063965 C90.70477478 63.89858826 90.70477478 63.89858826 90.55664062 61.97851562 C90.47305298 60.86980103 90.38946533 59.76108643 90.30334473 58.61877441 C90.15361479 56.02279149 90.15361479 56.02279149 89 54 C88.77306961 54.66239685 88.54613922 55.3247937 88.31233215 56.00726318 C86.15455345 62.30339301 83.99293541 68.59819047 81.82718372 74.89158249 C80.71435235 78.1257494 79.60292098 81.36038223 78.49487305 84.59619141 C77.21579007 88.33125798 75.93028614 92.06409968 74.64453125 95.796875 C74.05983818 97.50855865 74.05983818 97.50855865 73.46333313 99.25482178 C70.91459906 106.63398931 68.0660547 113.81978838 65 121 C59.39 121 53.78 121 48 121 C47.40985107 119.31519531 46.81970215 117.63039063 46.21166992 115.89453125 C44.25263796 110.30238959 42.29279437 104.71053292 40.33240795 99.11886597 C39.14489195 95.73158596 37.95769305 92.34419554 36.77124023 88.95654297 C35.62434984 85.68189066 34.47659855 82.40754124 33.32827187 79.13339233 C32.68132934 77.2881086 32.03525842 75.44251936 31.38920593 73.59692383 C30.98901749 72.45634521 30.58882904 71.3157666 30.17651367 70.140625 C29.80295746 69.07521484 29.42940125 68.00980469 29.04452515 66.91210938 C28.14186723 64.39552222 27.18859609 61.90881824 26.20825195 59.421875 C25 56 25 56 25 52 C24.34 52 23.68 52 23 52 C23.16983398 52.58402588 23.33966797 53.16805176 23.51464844 53.76977539 C24.29166455 57.34021914 23.65185302 60.84226909 23.25 64.4375 C22.05669709 75.89531066 21.14016285 87.3703866 20.24401855 98.85446167 C20.05897124 101.22342927 19.87137542 103.59218533 19.68359375 105.9609375 C19.62946823 106.66758041 19.57534271 107.37422333 19.51957703 108.10227966 C19.17341812 112.45019552 18.61894265 116.66740144 18 121 C8.76 121 -0.48 121 -10 121 C-10 110.875 -10 110.875 -9.62036133 106.66575623 C-9.49414902 105.23362038 -9.49414902 105.23362038 -9.36538696 103.77255249 C-9.22512589 102.25016464 -9.22512589 102.25016464 -9.08203125 100.69702148 C-8.98449554 99.60330734 -8.88695984 98.5095932 -8.78646851 97.38273621 C-8.46559379 93.79517116 -8.139087 90.20814291 -7.8125 86.62109375 C-7.5879489 84.12292051 -7.36375157 81.62471545 -7.13989258 79.1264801 C-6.61160098 73.24037705 -6.0797627 67.35460304 -5.54617405 61.46897799 C-4.87868919 54.10399619 -4.2167679 46.73851613 -3.5546875 39.37304688 C-2.37423297 26.24829408 -1.188297 13.12404508 0 0 Z " fill="#FDFDFD" transform="translate(102,36)"/>
<path d="M0 0 C9.24 0 18.48 0 28 0 C36.45511927 9.99241368 36.45511927 9.99241368 38.40625 14.4921875 C40.72403355 19.52275225 43.45805856 23.98793696 46.5625 28.5625 C47.462377 29.94529358 48.35819331 31.33073792 49.25 32.71875 C49.69730469 33.41355469 50.14460937 34.10835937 50.60546875 34.82421875 C58.50617689 47.15109392 66.24024338 59.58438941 74 72 C74.33 48.24 74.66 24.48 75 0 C84.24 0 93.48 0 103 0 C103 39.93 103 79.86 103 121 C93.76 121 84.52 121 75 121 C70.70074978 114.85821397 66.5145906 108.78537372 62.5625 102.4375 C61.52414737 100.78210661 60.48504392 99.127184 59.4453125 97.47265625 C58.89391602 96.59496582 58.34251953 95.71727539 57.77441406 94.81298828 C54.51890685 89.65201495 51.22783167 84.51381499 47.9375 79.375 C47.31367432 78.39974365 46.68984863 77.4244873 46.04711914 76.41967773 C40.39475031 67.59335924 34.69406024 58.79991128 29 50 C28.67 73.43 28.34 96.86 28 121 C18.76 121 9.52 121 0 121 C0 81.07 0 41.14 0 0 Z " fill="#FEFEFE" transform="translate(756,36)"/>
<path d="M0 0 C1.22355698 0.00222061 2.44711395 0.00444122 3.70774841 0.00672913 C4.71746201 0.00651009 4.71746201 0.00651009 5.74757385 0.00628662 C7.98229649 0.00698573 10.21693674 0.01477799 12.4516449 0.02259827 C13.99721226 0.02446245 15.54278022 0.02588635 17.08834839 0.02688599 C21.16380941 0.03071112 25.23923502 0.04054135 29.31468201 0.05158997 C33.47035747 0.0618042 37.62603864 0.06638363 41.78172302 0.07142639 C49.94124633 0.08216363 58.10073401 0.09976038 66.26023865 0.12025452 C66.26023865 8.37025452 66.26023865 16.62025452 66.26023865 25.12025452 C52.73023865 25.12025452 39.20023865 25.12025452 25.26023865 25.12025452 C25.26023865 32.71025452 25.26023865 40.30025452 25.26023865 48.12025452 C38.13023865 48.12025452 51.00023865 48.12025452 64.26023865 48.12025452 C64.26023865 56.37025452 64.26023865 64.62025452 64.26023865 73.12025452 C51.39023865 73.12025452 38.52023865 73.12025452 25.26023865 73.12025452 C25.26023865 80.71025452 25.26023865 88.30025452 25.26023865 96.12025452 C38.79023865 96.12025452 52.32023865 96.12025452 66.26023865 96.12025452 C66.26023865 104.37025452 66.26023865 112.62025452 66.26023865 121.12025452 C43.16023865 121.12025452 20.06023865 121.12025452 -3.73976135 121.12025452 C-3.77992502 91.17154578 -3.77992502 91.17154578 -3.79001522 76.4298315 C-3.79556703 68.4416234 -3.80262674 60.45342569 -3.81520081 52.46522522 C-3.82514791 46.14291595 -3.83161484 39.82061451 -3.83384985 33.49829763 C-3.83515691 30.14868702 -3.83824248 26.79909878 -3.84549141 23.44949532 C-3.85269755 19.71611807 -3.85375247 15.98278793 -3.85328674 12.24940491 C-3.85688202 11.13091156 -3.86047729 10.01241821 -3.86418152 8.86003113 C-3.86280685 7.84895798 -3.86143219 6.83788483 -3.86001587 5.7961731 C-3.86093766 4.91217362 -3.86185946 4.02817415 -3.86280918 3.11738682 C-3.66921608 -0.02473313 -3.18087857 0.13961618 0 0 Z " fill="#FEFEFE" transform="translate(16.739761352539063,35.87974548339844)"/>
<path d="M0 0 C0.54914063 0.4434375 1.09828125 0.886875 1.6640625 1.34375 C1.08428693 4.81973164 0.19885145 7.63479698 -1.40234375 10.76953125 C-1.80517578 11.56552734 -2.20800781 12.36152344 -2.62304688 13.18164062 C-3.04392578 13.99826172 -3.46480469 14.81488281 -3.8984375 15.65625 C-4.53555664 16.91018555 -4.53555664 16.91018555 -5.18554688 18.18945312 C-6.2302854 20.24371426 -7.28053512 22.29495292 -8.3359375 24.34375 C-12.4940185 23.01564652 -16.45138439 21.43712991 -20.4609375 19.71875 C-28.15336409 16.7472755 -35.19152268 15.79837498 -43.0234375 18.71875 C-45.4301955 20.13669145 -45.4301955 20.13669145 -46.3359375 22.34375 C-46.88364564 27.1780666 -46.88364564 27.1780666 -44.77734375 31.33203125 C-41.74576129 33.8300552 -38.48379223 35.48016148 -34.9609375 37.15625 C-34.25485352 37.50389404 -33.54876953 37.85153809 -32.82128906 38.2097168 C-29.43598571 39.87318482 -26.03565969 41.48838861 -22.59375 43.03125 C-11.07838665 48.36576131 0.10557166 56.26959835 4.9140625 68.53125 C7.01541379 79.21311906 5.58081766 89.39332771 0.19140625 98.95703125 C-6.69219501 108.63963822 -17.02688472 112.84644201 -28.3359375 115.34375 C-47.58988473 118.36181724 -65.99519699 113.69288566 -82.3359375 103.34375 C-83.6559375 102.02375 -84.9759375 100.70375 -86.3359375 99.34375 C-81.7159375 91.75375 -77.0959375 84.16375 -72.3359375 76.34375 C-68.96466482 78.02938634 -65.81029687 79.83911644 -62.5859375 81.78125 C-52.97413906 87.33988042 -45.71435669 89.69015227 -34.3359375 88.34375 C-30.12313771 86.62828389 -30.12313771 86.62828389 -26.9609375 83.53125 C-26.10650329 80.54073027 -25.89295646 78.44461727 -26.3359375 75.34375 C-31.26148095 69.03289746 -38.39428583 65.73426652 -45.51342773 62.49707031 C-52.81968648 59.17267128 -59.45325807 55.94385531 -65.3359375 50.34375 C-65.90570313 49.80234375 -66.47546875 49.2609375 -67.0625 48.703125 C-72.58826879 42.87793032 -75.5100649 35.93338867 -75.7734375 27.90625 C-75.24581215 15.85596774 -71.20873095 7.70565277 -62.4609375 -0.40625 C-45.50522335 -14.55750192 -17.57166775 -12.45884135 0 0 Z " fill="#FDFDFD" transform="translate(518.3359375,43.65625)"/>
<path d="M0 0 C28.05 0 56.1 0 85 0 C85 8.25 85 16.5 85 25 C75.43 25 65.86 25 56 25 C56 56.68 56 88.36 56 121 C46.76 121 37.52 121 28 121 C27.64809878 90.93199542 27.64809878 90.93199542 29 78.125 C30.29023425 65.87565564 30.84692448 54.164181 28.4453125 42.00390625 C27.60973758 36.36744036 27.8486806 30.68288418 28 25 C25.69 25.33 23.38 25.66 21 26 C17.125 20.375 17.125 20.375 16 17 C15.34 17 14.68 17 14 17 C12.44921875 15.42578125 12.44921875 15.42578125 10.6875 13.3125 C8.58709254 10.83139369 6.51703524 8.52776779 4.1875 6.25 C2 4 2 4 0 0 Z " fill="#FDFDFD" transform="translate(302,36)"/>
<path d="M0 0 C9.24 0 18.48 0 28 0 C28 39.93 28 79.86 28 121 C18.76 121 9.52 121 0 121 C0 81.07 0 41.14 0 0 Z " fill="#FDFDFD" transform="translate(396,36)"/>
<path d="M0 0 C4 1 4 1 7 2 C7.33 2.66 7.66 3.32 8 4 C8.66 3.67 9.32 3.34 10 3 C10.99 3 11.98 3 13 3 C14.34789347 2.01971384 15.68212715 1.02028865 17 0 C17.66 0 18.32 0 19 0 C19.33 22.11 19.66 44.22 20 67 C6 74 6 74 0 74 C0 49.58 0 25.16 0 0 Z " fill="#DDEFFD" transform="translate(282,85)"/>
<path d="M0 0 C0 25.08 0 50.16 0 76 C-4.48762525 75.10247495 -7.08749913 74.19100049 -11 72 C-11.59808975 71.75329056 -12.1961795 71.50658112 -12.81239319 71.25239563 C-15.11974498 70.0705281 -16.41632226 69.0736736 -18 67 C-19.01078032 62.11775456 -18.81452689 57.25224215 -18.68359375 52.29296875 C-18.67052875 50.84282321 -18.66056883 49.39264666 -18.65357971 47.94245911 C-18.62692309 44.13581186 -18.55822761 40.33105113 -18.48065186 36.52514648 C-18.40888711 32.63746664 -18.37704037 28.74948021 -18.34179688 24.86132812 C-18.26684898 17.24002774 -18.14747077 9.62027874 -18 2 C-17.67 2.66 -17.34 3.32 -17 4 C-15.67851173 4.37756808 -14.34164079 4.7018576 -13 5 C-11.3255761 5.6469365 -9.65697379 6.30959426 -8 7 C-7.67 6.34 -7.34 5.68 -7 5 C-1.28571429 0 -1.28571429 0 0 0 Z " fill="#DDEFFE" transform="translate(250,84)"/>
<path d="M0 0 C4.72993576 1.54946171 6.94842518 4.07383803 9.625 8.1875 C10.78961426 11.68134279 10.76068319 14.52405389 10.625 18.1875 C8.32736523 20.48513477 2.83568285 19.64658859 -0.2734375 19.80859375 C-3.53818346 19.97149964 -3.53818346 19.97149964 -6.375 22.1875 C-7.365 22.1875 -8.355 22.1875 -9.375 22.1875 C-11.85253018 18.47120473 -12.05768717 14.50008483 -11.375 10.1875 C-9.625 6.9375 -9.625 6.9375 -7.375 4.1875 C-6.776875 3.383125 -6.17875 2.57875 -5.5625 1.75 C-3.375 0.1875 -3.375 0.1875 0 0 Z " fill="#202122" transform="translate(266.375,103.8125)"/>
<path d="M0 0 C1.74216797 0.04060547 1.74216797 0.04060547 3.51953125 0.08203125 C4.39996094 0.11683594 5.28039062 0.15164062 6.1875 0.1875 C3.78713325 6.52613081 3.78713325 6.52613081 0.1875 8.1875 C-4.4796142 8.24668442 -7.89758791 7.7974414 -11.8125 5.1875 C-11.8125 4.5275 -11.8125 3.8675 -11.8125 3.1875 C-7.87993146 0.12883558 -4.89581268 -0.14835796 0 0 Z " fill="#DB9DAF" transform="translate(269.8125,122.8125)"/>
<path d="M0 0 C0 2.64 0 5.28 0 8 C-1.258125 8.04125 -2.51625 8.0825 -3.8125 8.125 C-4.52019531 8.14820312 -5.22789062 8.17140625 -5.95703125 8.1953125 C-8 8 -8 8 -11 6 C-10.625 3.5625 -10.625 3.5625 -10 1 C-6.78548731 -0.60725635 -3.56387464 -0.05748185 0 0 Z " fill="#95B6C2" transform="translate(232,95)"/>
<path d="M0 0 C0.66 0 1.32 0 2 0 C2.33 22.11 2.66 44.22 3 67 C1.35 65.35 -0.3 63.7 -2 62 C-1.34 61.34 -0.68 60.68 0 60 C0.29323962 57.36962499 0.29323962 57.36962499 0.22705078 54.26513672 C0.22689972 53.06404266 0.22674866 51.86294861 0.22659302 50.62545776 C0.21110916 48.67230148 0.21110916 48.67230148 0.1953125 46.6796875 C0.19158276 45.33733327 0.18873561 43.99497633 0.18673706 42.65261841 C0.17909744 39.117986 0.1594463 35.58351772 0.1373291 32.0489502 C0.11687765 28.4428123 0.10773685 24.83664791 0.09765625 21.23046875 C0.0762006 14.15357865 0.04206079 7.07680003 0 0 Z " fill="#CCE4F2" transform="translate(299,85)"/>
<path d="M0 0 C6.41868512 -0.3633218 6.41868512 -0.3633218 9 1.25 C10 3 10 3 9.75 5.125 C9 7 9 7 8 8 C5.32941149 8.14115161 2.67567762 8.04247107 0 8 C0 5.36 0 2.72 0 0 Z " fill="#93B4C1" transform="translate(301,95)"/>
<path d="M0 0 C1.74216797 0.04060547 1.74216797 0.04060547 3.51953125 0.08203125 C4.39996094 0.11683594 5.28039062 0.15164062 6.1875 0.1875 C6.1875 0.5175 6.1875 0.8475 6.1875 1.1875 C5.42824219 1.23648438 4.66898437 1.28546875 3.88671875 1.3359375 C2.89285156 1.41070312 1.89898437 1.48546875 0.875 1.5625 C-0.60419922 1.66691406 -0.60419922 1.66691406 -2.11328125 1.7734375 C-5.02778433 2.02615472 -5.02778433 2.02615472 -7.8125 4.1875 C-4.5125 4.8475 -1.2125 5.5075 2.1875 6.1875 C0.1875 8.1875 0.1875 8.1875 -1.87109375 8.234375 C-3.04865234 8.08742187 -3.04865234 8.08742187 -4.25 7.9375 C-5.42369141 7.80601562 -5.42369141 7.80601562 -6.62109375 7.671875 C-8.8125 7.1875 -8.8125 7.1875 -11.8125 5.1875 C-11.8125 4.5275 -11.8125 3.8675 -11.8125 3.1875 C-7.87993146 0.12883558 -4.89581268 -0.14835796 0 0 Z " fill="#BC9CAA" transform="translate(269.8125,122.8125)"/>
<path d="M0 0 C0.33 0 0.66 0 1 0 C1 3.63 1 7.26 1 11 C0.67 11 0.34 11 0 11 C-0.33 9.35 -0.66 7.7 -1 6 C-2.98 9.96 -4.96 13.92 -7 18 C-7.66 17.67 -8.32 17.34 -9 17 C-8.71125 16.46375 -8.4225 15.9275 -8.125 15.375 C-6.91316945 12.95281865 -6.91316945 12.95281865 -6.0625 10.0625 C-5.01468377 7.04232382 -3.84177229 4.60917741 -2 2 C-1.34 2 -0.68 2 0 2 C0 1.34 0 0.68 0 0 Z " fill="#CCDBE5" transform="translate(330,115)"/>
<path d="M0 0 C2 1 2 1 3 3 C2.34 3 1.68 3 1 3 C0.896875 3.598125 0.79375 4.19625 0.6875 4.8125 C-0.12680757 7.40347862 -0.86491252 8.33623426 -3 10 C-5.375 10.328125 -5.375 10.328125 -8 10.25 C-8.86625 10.23453125 -9.7325 10.2190625 -10.625 10.203125 C-13 10 -13 10 -16 9 C-15.67 8.34 -15.34 7.68 -15 7 C-14.40832031 7.13019531 -13.81664062 7.26039063 -13.20703125 7.39453125 C-10.73308137 7.82636263 -8.51204314 8.10519444 -6 8 C-2.67624797 5.50718598 -1.31065245 3.93195734 0 0 Z " fill="#BEC7D4" transform="translate(276,122)"/>
<path d="M0 0 C2.82781575 2.82781575 2.98793903 4.65023199 3.125 8.625 C3 12 3 12 2 13 C0.14712498 13.07226502 -1.70833878 13.0838122 -3.5625 13.0625 C-4.57441406 13.05347656 -5.58632813 13.04445313 -6.62890625 13.03515625 C-7.41136719 13.02355469 -8.19382812 13.01195313 -9 13 C-9 12.67 -9 12.34 -9 12 C-5.7 12 -2.4 12 1 12 C0.855625 10.72125 0.71125 9.4425 0.5625 8.125 C0.44068359 7.04605469 0.44068359 7.04605469 0.31640625 5.9453125 C0.08707039 3.92595684 0.08707039 3.92595684 -1 2 C-0.67 1.34 -0.34 0.68 0 0 Z " fill="#36373E" transform="translate(274,110)"/>
<path d="M0 0 C0.99 0.33 1.98 0.66 3 1 C-0.3 4.63 -3.6 8.26 -7 12 C-7.99 11.67 -8.98 11.34 -10 11 C-8.37660195 9.29115995 -6.70680947 7.62553283 -5 6 C-4.34 6 -3.68 6 -3 6 C-2.690625 5.195625 -2.38125 4.39125 -2.0625 3.5625 C-1 1 -1 1 0 0 Z " fill="#C5DAE4" transform="translate(319,133)"/>
<path d="M0 0 C3.45835793 0.28819649 4.78380733 0.78965038 7.3125 3.25 C9.12328851 6.2009146 9.38684492 7.61510691 9 11 C8.34 10.01 7.68 9.02 7 8 C4.74390367 5.236282 2.52333763 2.52333763 0 0 Z " fill="#AABBC5" transform="translate(268,104)"/>
<path d="M0 0 C0.6875 1.75 0.6875 1.75 1 4 C-0.3125 6.25 -0.3125 6.25 -2 8 C-2.66 8 -3.32 8 -4 8 C-4.33 7.01 -4.66 6.02 -5 5 C-3.35 3.35 -1.7 1.7 0 0 Z " fill="#DBE9F5" transform="translate(249,84)"/>
<path d="M0 0 C3.63 0 7.26 0 11 0 C9.515 2.475 9.515 2.475 8 5 C7.67 3.68 7.34 2.36 7 1 C5.02 1.33 3.04 1.66 1 2 C0.67 1.34 0.34 0.68 0 0 Z " fill="#CAA3B0" transform="translate(265,124)"/>
<path d="M0 0 C2.3431213 0.25561323 4.67843403 0.59270772 7 1 C7.33 1.66 7.66 2.32 8 3 C5.21176345 4.0326802 4.1322726 4.04509293 1.25 3.0625 C0.5075 2.711875 -0.235 2.36125 -1 2 C-0.67 1.34 -0.34 0.68 0 0 Z " fill="#2A3138" transform="translate(263,104)"/>
<path d="M0 0 C2.97 0.495 2.97 0.495 6 1 C6 1.66 6 2.32 6 3 C6.99 3 7.98 3 9 3 C9 3.66 9 4.32 9 5 C6.03 4.01 3.06 3.02 0 2 C0 1.34 0 0.68 0 0 Z " fill="#C9DEEB" transform="translate(233,86)"/>
<path d="M0 0 C0.66 0.66 1.32 1.32 2 2 C0.625 4.5 0.625 4.5 -1 7 C-1.66 7 -2.32 7 -3 7 C-1.125 2.25 -1.125 2.25 0 0 Z " fill="#C3D7E2" transform="translate(211,53)"/>
<path d="" fill="#FFFFFF" transform="translate(0,0)"/>
<path d="" fill="#FFFFFF" transform="translate(0,0)"/>
</svg>
